# AST/ASF file generated using VICON BodyLanguage
# -----------------------------------------------
:version 1.10
:name VICON
:units
  mass 1.0
  length 0.45
  angle deg
:documentation
   .ast/.asf automatically generated from VICON data using
   VICON BodyBuilder and BodyLanguage model FoxedUp or BRILLIANT.MOD
:root
   order TX TY TZ RX RY RZ
   axis XYZ
   position 0 0 0  
   orientation 0 0 0 
:bonedata
  begin
     id 1 
     name lhipjoint
     direction 0.64773 -0.699417 0.302095 
     length 2.48597 
     axis 0 0 0  XYZ
  end
  begin
     id 2 
     name lfemur
     direction 0.34202 -0.939693 0  
     length 6.71947  
     axis 0 0 20  XYZ
    dof rx ry rz
    limits (-160.0 20.0)
           (-70.0 70.0)
           (-60.0 70.0)
  end
  begin
     id 3 
     name ltibia
     direction 0.34202 -0.939693 0   
     length 8.08777   
     axis 0 0 20   XYZ
    dof rx
    limits (-10.0 170.0)
  end
  begin
     id 4 
     name lfoot
     direction 0.0808503 -0.222134 0.971658   
     length 2.08264   
     axis -90 7.62852e-016 20   XYZ
    dof rx rz
    limits (-45.0 90.0)
           (-70.0 20.0)
  end
  begin
     id 5 
     name ltoes
     direction 1.53502e-011 -4.22007e-011 1   
     length 1.04662   
     axis -90 7.62852e-016 20   XYZ
    dof rx
    limits (-90.0 20.0)
  end
  begin
     id 6 
     name rhipjoint
     direction -0.610924 -0.726792 0.313919   
     length 2.39233  
     axis 0 0 0  XYZ 
  end
  begin
     id 7 
     name rfemur
     direction -0.34202 -0.939693 0   
     length 6.96955   
     axis 0 0 -20   XYZ
    dof rx ry rz
    limits (-160.0 20.0)
           (-70.0 70.0)
           (-70.0 60.0)
  end
  begin
     id 8 
     name rtibia
     direction -0.34202 -0.939693 0   
     length 8.19584   
     axis 0 0 -20   XYZ
    dof rx
    limits (-10.0 170.0)
 end
 begin
     id 9 
     name rfoot
     direction -0.077777 -0.213691 0.9738   
     length 2.07539  
     axis -90 -7.62852e-016 -20   XYZ
    dof rx rz
    limits (-45.0 90.0)
           (-20.0 70.0)
  end
  begin
     id 10 
     name rtoes
     direction -1.53558e-011 -4.22006e-011 1   
     length 1.04381   
     axis -90 -7.62852e-016 -20   XYZ
    dof rx
    limits (-90.0 20.0)
  end
  begin
     id 11 
     name lowerback
     direction -0.00971646 0.996074 0.0879841   
     length 1.67643   
     axis 0 0 0   XYZ
    dof rx ry rz
    limits (-20.0 45.0)
           (-30.0 30.0)
           (-30.0 30.0)
  end
  begin
     id 12 
     name upperback
     direction 0.0127391 0.991676 0.128127   
     length 1.63741   
     axis 0 0 0   XYZ
    dof rx ry rz
    limits (-20.0 45.0)
           (-30.0 30.0)
           (-30.0 30.0)
  end
  begin
     id 13 
     name thorax
     direction 0.0167583 0.996049 0.0872067   
     length 1.65931   
     axis 0 0 0   XYZ
    dof rx ry rz
    limits (-20.0 45.0)
           (-30.0 30.0)
           (-30.0 30.0)
  end
  begin
     id 14 
     name lowerneck
     direction -0.0317829 0.998312 0.0486079   
     length 1.79021   
     axis 0 0 0   XYZ
    dof rx ry rz
    limits (-20.0 45.0)
           (-30.0 30.0)
           (-30.0 30.0)
  end
  begin
     id 15 
     name upperneck
     direction 0.0896851 0.972452 -0.215159   
     length 1.78797   
     axis 0 0 0   XYZ
    dof rx ry rz
    limits (-20.0 45.0)
           (-30.0 30.0)
           (-30.0 30.0)
  end
  begin
     id 16
     name head
     direction 0.0310949 0.996503 -0.0775582  
     length 1.81549  
     axis 0 0 0   XYZ
    dof rx ry rz
    limits (-20.0 45.0)
           (-30.0 30.0)
           (-30.0 30.0)
  end
  begin
     id 17 
     name lclavicle
     direction 0.853638 0.502051 -0.138733  
     length 3.31627  
     axis 0 0 0   XYZ
    dof ry rz
    limits (-20.0 10.0)
           (0.0 20.0)
  end
  begin
     id 18 
     name lhumerus
     direction 1 -4.48962e-011 -1.41788e-018   
     length 5.54893   
     axis 180 -30 -90   XYZ
    dof rx ry rz
    limits (-60.0 90.0)
           (-90.0 90.0)
           (-90.0 90.0)
  end
  begin
     id 19
     name lradius
     direction 1 -4.48962e-011 -4.95754e-027   
     length 3.02898   
     axis 180 -30 -90   XYZ
    dof rx
    limits (-10.0 170.0)
  end
  begin
     id 20
     name lwrist
     direction 1 -4.48952e-011 -1.03764e-026   
     length 1.51449   
     axis 9.09556e-015 90 90   XYZ
    dof ry
    limits (-180.0 0.0)
 end
  begin
     id 21 
     name lhand
     direction 1 -4.4902e-011 -2.07528e-026   
     length 0.640951   
     axis 1.3242e-014 90 90   XYZ
    dof rx rz
    limits (-90.0 90.0)
           (-45.0 45.0)
  end
  begin
     id 22 
     name lfingers
     direction 1 -4.49014e-011 -4.15056e-026   
     length 0.516751   
     axis 2.64841e-014 90 90   XYZ
    dof rx
    limits (0.0 90.0)
  end
  begin
     id 23
     name lthumb
     direction 0.707107 -6.35008e-011 0.707107   
     length 0.741954   
     axis -90 45 2.85299e-015   XYZ
    dof rx rz
    limits (-45.0 45.0)
           (-45.0 45.0)
  end
  begin
     id 24 
     name rclavicle
     direction -0.888531 0.455324 -0.0565039   
     length 3.20126  
     axis 0 0 0   XYZ 
    dof ry rz
    limits (-10.0 20.0)
           (-20.0 0.0)
  end
  begin
     id 25 
     name rhumerus
     direction -1 -4.48946e-011 -8.98298e-028  
     length 5.3519   
     axis 180 30 90   XYZ
    dof rx ry rz
    limits (-90.0 60.0)
           (-90.0 90.0)
           (-90.0 90.0)
  end
  begin
     id 26 
     name rradius
     direction -1 -4.4899e-011 -3.18779e-027   
     length 3.02531   
     axis 180 30 90   XYZ
    dof rx
    limits (-10.0 170.0)
  end
  begin
     id 27 
     name rwrist
     direction -1 -4.4897e-011 -1.03764e-026   
     length 1.51266   
     axis 9.09556e-015 -90 -90   XYZ
    dof ry
    limits (-180.0 0.0)
  end
  begin
     id 28
     name rhand
     direction -1 -4.48941e-011 -2.07528e-026   
     length 0.78389   
     axis 1.3242e-014 -90 -90   XYZ
    dof rx rz
    limits (-90.0 90.0)
           (-45.0 45.0)
  end
  begin
     id 29
     name rfingers
     direction -1 -4.49012e-011 -4.15056e-026   
     length 0.631992   
     axis 2.64841e-014 -90 -90   XYZ
    dof rx
    limits (0.0 90.0)
  end
  begin
     id 30
     name rthumb
     direction -0.707107 -6.3496e-011 0.707107   
     length 0.907418   
     axis -90 -45 -2.85299e-015   XYZ
    dof rx rz
    limits (-45.0 45.0)
           (-45.0 45.0)
  end
:hierarchy
  begin
    root lhipjoint rhipjoint lowerback
    lhipjoint lfemur
    lfemur ltibia
    ltibia lfoot
    lfoot ltoes
    rhipjoint rfemur
    rfemur rtibia
    rtibia rfoot
    rfoot rtoes
    lowerback upperback
    upperback thorax
    thorax lowerneck lclavicle rclavicle
    lowerneck upperneck
    upperneck head
    lclavicle lhumerus
    lhumerus lradius
    lradius lwrist
    lwrist lhand lthumb
    lhand lfingers
    rclavicle rhumerus
    rhumerus rradius
    rradius rwrist
    rwrist rhand rthumb
    rhand rfingers
  end

#!OML:ASF E:\Style3\Style3.ASF
:FULLY-SPECIFIED
:DEGREES
531
root -2.06671 17.6674 1.19881 -152.662 65.7478 -173.023
lowerback 19.8248 4.66315 -5.18578
upperback 13.6437 6.8171 4.58939
thorax 2.75077 3.48611 6.67167
lowerneck -9.73702 -7.64951 -6.56473
upperneck 18.2556 -13.7711 28.7586
head 10.2341 -4.08546 9.96997
rclavicle 8.5875e-014 3.89618e-014
rhumerus 71.9435 11.9225 -12.4723
rradius 129.832
rwrist -98.0327
rhand 50.3826 9.60411
rfingers 7.12502
rthumb 70.2 14.518
lclavicle 8.5875e-014 3.89618e-014
lhumerus 35.213 -64.2413 73.0324
lradius 109.756
lwrist 97.1811
lhand -28.5556 26.2447
lfingers 7.12502
lthumb -1.92247 56.2158
rfemur -33.5437 -4.4954 20.8524
rtibia 26.5835
rfoot -12.4368 -23.3641
rtoes -13.5504
lfemur -37.2136 -16.768 -2.74458
ltibia 13.6945
lfoot 2.39763 13.2055
ltoes -31.6775
532
root -2.06616 17.6656 1.19506 -152.803 65.87 -173.231
lowerback 19.7466 4.63481 -5.33635
upperback 13.6872 6.76407 4.57108
thorax 2.83795 3.44714 6.75861
lowerneck -9.7539 -7.58506 -6.56138
upperneck 18.2478 -13.6693 28.6661
head 10.2 -4.04774 9.94164
rclavicle -7.23576e-014 -3.97569e-014
rhumerus 72.2908 12.0108 -12.3281
rradius 129.533
rwrist -98.1401
rhand 50.1732 9.33204
rfingers 7.12502
rthumb 70.0646 13.8041
lclavicle -7.23576e-014 -3.97569e-014
lhumerus 35.1024 -64.0303 73.0814
lradius 109.716
lwrist 97.1169
lhand -28.4024 26.0812
lfingers 7.12502
lthumb -1.77456 56.0535
rfemur -33.6819 -4.50577 20.7188
rtibia 26.7205
rfoot -12.5639 -23.2466
rtoes -13.6503
lfemur -37.2928 -16.7033 -2.89551
ltibia 13.8147
lfoot 2.429 13.1685
ltoes -32.0036
533
root -2.06716 17.6635 1.19123 -152.823 65.9688 -173.278
lowerback 19.6905 4.59711 -5.41855
upperback 13.7422 6.71217 4.58358
thorax 2.92895 3.41259 6.83915
lowerneck -9.72178 -7.4891 -6.57084
upperneck 18.2204 -13.5133 28.5799
head 10.1377 -3.99049 9.92544
rclavicle 4.21423e-014 -6.67916e-014
rhumerus 72.7214 12.1652 -12.1554
rradius 129.195
rwrist -98.0749
rhand 49.9058 9.02561
rfingers 7.12502
rthumb 69.8898 12.9422
lclavicle 4.21423e-014 -6.67916e-014
lhumerus 35.0419 -63.7986 73.1078
lradius 109.687
lwrist 97.0261
lhand -28.1404 26.0778
lfingers 7.12502
lthumb -1.52154 56.0522
rfemur -33.7938 -4.51191 20.6706
rtibia 26.8496
rfoot -12.4321 -23.2064
rtoes -14.252
lfemur -37.325 -16.5071 -3.05186
ltibia 13.9122
lfoot 2.50251 12.9804
ltoes -32.3902
534
root -2.06896 17.6627 1.18734 -152.872 66.0501 -173.36
lowerback 19.7124 4.58734 -5.40592
upperback 13.7702 6.70417 4.57668
thorax 2.95277 3.40928 6.82679
lowerneck -9.75534 -7.49088 -6.70652
upperneck 18.3017 -13.5251 28.6602
head 10.1957 -3.99135 9.99375
rclavicle 1.66979e-014 -2.78299e-014
rhumerus 72.7856 12.2257 -12.0191
rradius 129.042
rwrist -98.0199
rhand 49.5878 9.07263
rfingers 7.12502
rthumb 69.6795 12.3415
lclavicle 1.66979e-014 -2.78299e-014
lhumerus 35.0758 -63.7095 73.0345
lradius 109.757
lwrist 97.0524
lhand -28.1984 26.358
lfingers 7.12502
lthumb -1.5775 56.3319
rfemur -33.9002 -4.60206 20.6366
rtibia 26.9528
rfoot -12.3244 -23.0723
rtoes -14.7096
lfemur -37.3725 -16.3643 -3.18665
ltibia 13.9937
lfoot 2.40895 12.8992
ltoes -32.1376
535
root -2.07142 17.6607 1.18389 -152.95 66.1093 -173.508
lowerback 19.7197 4.59564 -5.42912
upperback 13.8056 6.71686 4.60216
thorax 2.98273 3.41282 6.86746
lowerneck -9.77793 -7.53066 -6.82536
upperneck 18.3097 -13.5786 28.7072
head 10.2296 -4.02153 10.0305
rclavicle 3.33958e-014 -1.98785e-014
rhumerus 72.7366 12.2141 -11.8318
rradius 128.918
rwrist -97.9725
rhand 49.3316 9.455
rfingers 7.12502
rthumb 69.5081 12.212
lclavicle 3.33958e-014 -1.98785e-014
lhumerus 35.2035 -63.6873 72.9659
lradius 109.836
lwrist 97.1281
lhand -28.391 26.4591
lfingers 7.12502
lthumb -1.76354 56.4315
rfemur -34.0308 -4.66581 20.5712
rtibia 27.037
rfoot -12.2202 -22.9923
rtoes -15.2964
lfemur -37.4764 -16.327 -3.27565
ltibia 14.0755
lfoot 2.38471 12.8976
ltoes -32.0917
536
root -2.07385 17.6596 1.18071 -152.926 66.1745 -173.545
lowerback 19.7433 4.57372 -5.38906
upperback 13.8258 6.69559 4.58014
thorax 3.00268 3.40504 6.82509
lowerneck -9.67347 -7.52144 -6.83768
upperneck 18.2038 -13.5463 28.7426
head 10.1666 -4.02277 10.0442
rclavicle 1.74931e-014 -1.35174e-014
rhumerus 72.7918 12.3564 -11.7401
rradius 128.695
rwrist -97.9029
rhand 48.8753 9.34087
rfingers 7.12502
rthumb 69.1988 11.2078
lclavicle 1.74931e-014 -1.35174e-014
lhumerus 35.2406 -63.6321 72.9087
lradius 109.829
lwrist 97.145
lhand -28.0771 26.4282
lfingers 7.12502
lthumb -1.46035 56.403
rfemur -34.1562 -4.65614 20.528
rtibia 27.1189
rfoot -12.1817 -22.9755
rtoes -15.4785
lfemur -37.5524 -16.2293 -3.34912
ltibia 14.1443
lfoot 2.37713 12.8641
ltoes -32.1952
